<svg xmlns="http://www.w3.org/2000/svg" width="85.338" height="85.338" viewBox="0 0 85.338 85.338"><defs><linearGradient id="a" x1=".5" x2=".5" y2="1" gradientUnits="objectBoundingBox"><stop offset="0" stop-color="#deac00"/><stop offset="1" stop-color="#ffe792"/></linearGradient></defs><path d="M42.669 0a42.669 42.669 0 1 0 42.669 42.669A42.669 42.669 0 0 0 42.669 0zm33.044 20.467l-2.957 12.57-15.579 5.193-13.086-10.467V12.341l14.934-5.973a40.065 40.065 0 0 1 16.688 14.1zm.238 44.028l-14.1 2.227-7.68-10.146 3.913-15.645L73.485 35.8l8.825 10.59a39.565 39.565 0 0 1-6.359 18.108zm-52.4 2.237L9.387 64.495a39.57 39.57 0 0 1-6.358-18.113l8.819-10.59 15.406 5.134 3.913 15.654zM2.857 42.139a39.567 39.567 0 0 1 4.667-18.176l2.307 9.814zM33.823 55.47L30.05 40.362l12.619-10.094 12.622 10.1-3.776 15.1zm41.684-21.7l2.307-9.814a39.565 39.565 0 0 1 4.667 18.175zM55.147 4.857L42.669 9.848 30.124 4.88a39.679 39.679 0 0 1 25.022-.023zM26.244 6.4l15 5.945v15.418L28.161 38.23l-15.579-5.193-2.957-12.57A40.074 40.074 0 0 1 26.244 6.4zm-14.48 61.35l11.562 1.826 6.992 10.952A39.955 39.955 0 0 1 11.764 67.75zM34.4 81.623l-8.492-13.287 7.516-10.021h18.49l7.623 10.07-7.4 12.961a39.7 39.7 0 0 1-17.737.284zm21.7-1.464l6.055-10.609 11.425-1.8a39.978 39.978 0 0 1-17.487 12.409zm0 0" fill="url(#a)"/></svg>