<svg xmlns="http://www.w3.org/2000/svg" width="81.182" height="121.737" viewBox="0 0 81.182 121.737"><path fill="#e9bd03" d="M12.221 35.548h56.988v50.688H12.221z"/><path d="M81.146 20.278H0l.024.059v68.9c0 11.165 9.207 18.118 22.508 21.951 12.352 3.56 16.208 7.9 18.011 10.477l.036.071.012-.012a.012.012 0 0 0 .012.012l.036-.071c1.8-2.575 5.66-6.917 18.011-10.477 13.3-3.832 22.508-10.785 22.508-21.951v-68.9l.024-.059zm-1.163 1.519v66.92c0 10.845-8.946 17.6-21.868 21.322-12 3.465-15.745 7.677-17.5 10.18l-.036.083c0-.012-.012-.012-.012-.024 0 .012-.012.012-.012.024l-.024-.083c-1.756-2.5-5.505-6.716-17.5-10.18-12.9-3.726-21.844-10.477-21.844-21.322v-66.92l-.024-.059h78.856z" fill="#211917"/><path d="M31.134 81.099a.4.4 0 0 1 .4.2.4.4 0 0 0-.4-.2z" fill="#94644d"/><path d="M14.274 84.611l-.024-.024a.044.044 0 0 0 .012.036z" fill="#211917"/><path d="M37.257 53.287a.346.346 0 0 1 .107-.024c-.036.012-.071.012-.107.024zm.142-.024a.445.445 0 0 1 .119-.012.445.445 0 0 0-.119.012zm1.115.237a.071.071 0 0 1 .047.012.071.071 0 0 1-.047-.012zm.143.012zm-3.5-.629zm1.969.463a.292.292 0 0 1 .107-.047.42.42 0 0 0-.107.047zm-2.112-.474zm-.059 1.4c.012 0 .012 0 .024.012 0-.012-.012-.012-.024-.012zm.154.13a.7.7 0 0 0 .047.095.234.234 0 0 1-.047-.095zm-.083-.095a.012.012 0 0 1-.012-.012.012.012 0 0 0 .012.012zm-.32-1.53c-.012 0-.012 0-.024-.012a.037.037 0 0 0 .024.012zm2.207.711c.024-.024.059-.047.083-.071a.517.517 0 0 0-.083.071zm.094-.083a.661.661 0 0 1 .095-.059.259.259 0 0 1-.095.059zm-.189.178c.024-.024.047-.059.071-.083a.516.516 0 0 1-.071.083zm-.986 1.045c-.024.012-.036.012-.059.024.024-.012.036-.024.059-.024zm.903-.938a.516.516 0 0 0 .071-.083.516.516 0 0 0-.071.083z" fill="#94644d"/><path d="M35.145 54.498c.012-.012.012-.024.024-.036-.012.012-.012.024-.024.036zm1.518-.701c.012-.024.036-.047.047-.071a.152.152 0 0 0-.047.071zM23.968 68.32c.285.178.273-.071.5.285-.024-.392.522.641.249.142.024-.107 0-.273.119-.273 0 .083.107.166.119 0-.394-.189-.868-.344-.987-.154z" fill="#94644d"/><path d="M32.63 79.485c.071-1.258-1.649-.676-2.515-1.068a2.71 2.71 0 0 1-1.4-1.7.041.041 0 0 0 .012-.024 1.983 1.983 0 0 1 1-1.637c.047-.012.071-.036.119-.047.012.012.024.036.047.059v-.083a1.746 1.746 0 0 0 .57-.605 7.216 7.216 0 0 0 .724-2.278c.119-.225.237-.475.344-.736.166.059.273.107.107-.071a.179.179 0 0 1-.047-.095 3.587 3.587 0 0 0 .237-1.2l.071-.107c.107.285.629.036.249-.142-.024.3-.142-.012-.332-.036a.129.129 0 0 0-.012-.059.892.892 0 0 0-.522-.676c-.261-.107-.51-.19-.759-.285a.168.168 0 0 0 .024-.071c-.107-.047-.166-.036-.2-.012a2.128 2.128 0 0 1-.38-.225c-.19-.154-.356-.309-.534-.475a.329.329 0 0 0-.237-.19 1.788 1.788 0 0 0-.237-.142c-.012-.012-.036-.012-.059-.024 0-.024-.024-.059-.083-.071 0 .012-.012.012-.024.024a3.291 3.291 0 0 0-1.317-.19c-.866 0-1.744-.036-2.61-.047-.237-.012-.7.237-.309.5.2.142.392.273.57.415a1 1 0 0 0 .285.273c.071.083.154.166.214.249a.549.549 0 0 0 .2.308c.261.392.522.807.783 1.2.107.154.2.3.309.451a.794.794 0 0 0-.225.166.5.5 0 0 1 .368.142c0-.024.024-.036.024-.059.047.083.107.154.154.237a.483.483 0 0 1-.059.107c.047.012.095.012.142.024.047.083.107.166.154.249a3.052 3.052 0 0 1 .142 1.981.533.533 0 0 0-.012.131.894.894 0 0 1-.178 0c-.273.19.154.344-.131.415-.059-.107-.546-.214-.249.142a1.007 1.007 0 0 0-.866.285c.154.024.083.154 0 .273.32.012.486.2.5.558-.131.308-.676-.308-.866.13.854.392 1.388-.534 1.732-.961a3.01 3.01 0 0 0 .036.356c-.285.664-1.78 1.293-1.9 2.148.344.249.937.368.617.985.593.38.949.463 1.483.012.131.356-.38.664 0 .831.973-.9 1.673.51 1.614 1.317.119-.676 1.424-.427.973.225.083-.5-.356-.427-.736-.415-.059.534.047.878.368.985.261-.261.368-.486.747-.285.273-1.365-.178-1.8-1.234-1.97 1.388-.724 1.281 1.365 2.159 1.673.249-.095.024-.759.309-.819.107.047.19.344.3.5.061-.152.179-.463.346-.546zm-3.43-35.31c.38.546.214 1.578-.32 1.637.664-.095.819-.024 1.02-.629s-.2-1.258-.748-1.839a.931.931 0 0 1-.166-.7c-.012-.071-.961.142-.332.878a4.524 4.524 0 0 1 .546.653zm6.229 10.382a.3.3 0 0 1-.083-.047c-.059-.024-.119-.047-.166-.071v.012a.28.28 0 0 0 .119.059.424.424 0 0 0 .13.047zm-.557-1.721c-.012 0-.012 0-.024-.012.012.012.012.012.024.012zm-14.784-6.775c.51.095-.309 1.388.237 2.1-.735-.522-.178-1.566-.237-2.1zm1.981-1.946a1.558 1.558 0 0 0 1.364 1.009l.012.19h-.095a1.8 1.8 0 0 1-1.436-1.1zm-.771 6.847c-.285-.522-.759-2.183.131-2.1-.642.462-.178 1.281-.131 2.1zm-.462-6.301c.451.747-.368 2.326.605 2.8.32-.51.012-.949.38-1.258.166.831-.38 1.542.237 2.243-.843-.154-1.768-2.729-1.222-3.785zm1.224 4.485c.32-.439.344.629.985.285.199.308-1.011.107-.985-.285zm1.611-1.4c-.107.142-.439-.047-.617.285-.036.546.047.973.368 1.115-1.246-.178.2-2.1.131-2.515.355.38-.178 1.02.118 1.115zm.095-2.326l.154.059a1.255 1.255 0 0 0-.012.783.231.231 0 0 0 .214.095 4.166 4.166 0 0 0 .854-.131 2.615 2.615 0 0 1 1.127-.095l-.047.178a2.081 2.081 0 0 0-.831.047 2.769 2.769 0 0 0 .866.332l-.036.178a2.787 2.787 0 0 1-1.068-.475 5.306 5.306 0 0 1-.866.131.375.375 0 0 1-.344-.178c-.201-.271-.035-.853-.011-.924zm6.288 14.524c.012-.356.486-.2.5-.558.178.059-.024.119 0 .285.653-.32.629-1.056 1.115-1.258-.523.842-.515 1.424-1.615 1.531zm2.374-5.589c-.332.142.166 1.21-.38 1.115.344-.13-.154-1.21.38-1.115zm-.25 1.257a.845.845 0 0 0 .332.344.725.725 0 0 1 .166.083c.759.32 1.993.107 2.219 1.27-.3-.724-1.258-.629-2.219-1.258a1.084 1.084 0 0 1-.166-.083c-.2-.071-.451-.059-.332.356-.292-.048-.071-.629 0-.712zm.239 2.101a4.6 4.6 0 0 0-2.6-.012 2.227 2.227 0 0 1 2.6.012zm-4.569-3.227c.368-.095-.119-.308 0-.558.178-.451 0 .629.486.285-.439.9-.961-.225-1.364-.558-.06-.368.735.51.878.831zm-.629 1.802c.131-.344.047-.3.131-.842.415.059.581 1.02-.131.842zm-1.092-6.015c.5-.036 1.685-1.281 2.231-.131-1.092-.676-1.91.89-2.978-.154.166-.593.51.154.747.285zm.503 2.1a3.565 3.565 0 0 1-1.614-1.127c-.186-.392 1.182.818 1.614 1.127zm-1.939 11.142c.415-.285.819-.558 1.222-.819 1.234-.807 2.3-1.483 2.266-2.088l.166-.012c.047.724-1.009 1.4-2.349 2.266-.4.261-.807.522-1.222.807a4.117 4.117 0 0 0-1.91 2.563l-.166-.024a4.319 4.319 0 0 1 1.993-2.693zm-2.705 7.546a4.5 4.5 0 0 0-.154-.581 3.059 3.059 0 0 1 .036-2.148 3.46 3.46 0 0 0 .083-2.136l.154-.083a3.611 3.611 0 0 1-.083 2.278 2.9 2.9 0 0 0-.036 2.017c.059.166.107.368.166.593a3.158 3.158 0 0 1-.985 3.382l-.107-.142a2.97 2.97 0 0 0 .926-3.18zm14.309-19.079a5.551 5.551 0 0 1-.344.439 5.557 5.557 0 0 0 .344-.439zm2.327 1.53zm-2.896-.866c-.012 0-.012.012-.024.024zm.095-.083c-.012.012-.024.012-.024.024zM14.855 78.37c-.071-.19-.38-.261-.486-.285v-.083a3.043 3.043 0 0 0-.036.154.357.357 0 0 0-.178-.083 1.87 1.87 0 0 1 .095.475 12.517 12.517 0 0 1-.617 1.732 2.9 2.9 0 0 0-.142.368h.012c.024 0 .036.012.059.012a3.32 3.32 0 0 1 .985-1.649c.249-.262.356-.487.308-.641zm20.658-25.581h-.012c0 .012.012 0 .012 0zm.106-.06a.012.012 0 0 0-.012.012.012.012 0 0 1 .012-.012zm-17.192 3.418c.024.024.225.178.261.261a3.076 3.076 0 0 0-.558-2.136c-1.032-1.163-3.192-.961-3.215-.961l-.012-.19a5.033 5.033 0 0 1 2.954.664c-.036-.059-.119-.154-.154-.214a2.3 2.3 0 0 0-1.637-.937c-.581-.2-1.305-.285-1.673-.831-.119-.178-.249-.866-.522-.807-.225.047-.3 1.281-.3 1.341 0 .119-.012.237-.012.368.415-.178 1.329-.439 1.341.534.012.605-.486.605-.676.629a2.125 2.125 0 0 1-.57.012 6.534 6.534 0 0 1 .427.807c.083.415-.214.925-.119 1.329a.417.417 0 0 0 .273.344.551.551 0 0 0 .57-.071c.059-.047.107-.356.142-.415.166-.32.392-.131.676-.119a4.83 4.83 0 0 0 1.092-.142 1.617 1.617 0 0 1 .736-.083 1.559 1.559 0 0 1 .976.617zm17.5-3.691c-.012.012-.024.036-.047.047.012-.023.036-.035.047-.047z" fill="#94644d"/><path d="M16.896 84.691c-.071-.475-.842-.712-.842-.712l.047-.178c.024.012.866.261.961.854a1.036 1.036 0 0 1-.356.866c.095-.047.178-.107.273-.166v-.012c.237-.166.463-.356.617-.475s.261-.2.38-.285a.865.865 0 0 0-.059-.463 1.17 1.17 0 0 0-.795-.51l.024-.19a1.349 1.349 0 0 1 .914.605 1.037 1.037 0 0 1 .095.439c.142-.095.3-.19.475-.309a.752.752 0 0 0-.059-.356 1.678 1.678 0 0 0-.866-.747l.047-.178a1.838 1.838 0 0 1 .973.842 1.554 1.554 0 0 1 .071.32c.38-.368-.036-1.151-.475-1.293a4.052 4.052 0 0 0-1.187-.178 5.96 5.96 0 0 1-1.412-.237c-.012 0-.985-.771-1.044-1.175a1.551 1.551 0 0 1 .178-1.009c.178-.415.546-.5.831-.653a1.1 1.1 0 0 0 .392-.308c.024.012.047.012.071.036a.5.5 0 0 0-.024-.131 1.391 1.391 0 0 0-.107-.9v-.012c1.507-.273 3.132-.427 3.714-1.732-.107-.095-.38-.653-.119-.7a8.64 8.64 0 0 1 .985 2.527c.486.071.641-.3.866.142-.214.285-.38.119-.5.273.617.475 1.21-.783 1.732-.415 0-.427.261-.546.38-.842-.261-.237-.368-.309-.748-.142-1.78-1.97.688-3.915 1.258-5.731-.095-.036-.249 0-.249-.142.546-.095.285-1.27.249-1.115-.273.2.154.344-.131.415.071-.332-.071-.439-.285-.475v-.083c.273.012.51-.012.534-.285-.463-.107-.012-.486-.237-.7h-.249a.291.291 0 0 1-.047.142.9.9 0 0 0 .012-.178c.012-.036.036-.059.047-.095h-.047v-.237c.012-.012.036-.024.036-.036s-.012-.13-.024-.261a6.349 6.349 0 0 1 .831-2.67c.059 0 .771-1.151.89-1.293a29.38 29.38 0 0 0 1.009-.949c.012-.012.356-.392.534-.593a11.64 11.64 0 0 1 1.222-.937c-.2.083.451-.344.439-.4a8.166 8.166 0 0 1 3.405-1.27 2.445 2.445 0 0 1 1.744-1.531c.142-.866-.534-.795-.736-1.258.439.107.605.534 1.115.558.178-.178.131-.605.131-.973.831-.237.724.57.985.985.629.4.712-.558.985-.985.427.178.463.771.985.842.38 0 .486-.3.748-.415.285-1.436-.973-1.139-1.353-1.827 1.744.237 1.59.985 2.6.285-.439-.475-.7-.344-.985-.842.38 0 .32-.5.38-.842-.095-.024-.142-.119-.119-.285-.593-.178-.475.534-.747 0-.439 2.1-2.373.9-3.844 1.388a9.316 9.316 0 0 1 .38-2.1c-1.5-.641-2.148 1.02-3.346 1.388.012-.273.344-.178.261-.558-.332-.415-2.919-1.293-2.966-.57.095-.427-.344-.273-.249-.7 1.02.795 3.239.012 3.334 1.27 1.2-.475 1.851-1.72 3.1-1.115a5.024 5.024 0 0 0 .012-1.305c-.107-.3-.142-.356.214-.142a2.3 2.3 0 0 0 .4.214h.024a.622.622 0 0 0 .214.119c.012-.036.131-.036.131 0 .166.047.237.2.486.142a.469.469 0 0 1 .095-.142 3.05 3.05 0 0 0-.581-1.59 7.946 7.946 0 0 1 1.542.854 2.549 2.549 0 0 0 .38-.415 1.519 1.519 0 0 0 .225-.463c.012-.119.036-.866-.522-.914a6.5 6.5 0 0 0-.973.071c-.285-.012-.285-.285 0-.332s.783.059 1 0 .309.036.439-.273a.151.151 0 0 1 .047-.071c-.024-.095-.059-.19-.083-.285.024-.142-.012-.178-.071-.178-.024-.047-.036-.095-.059-.142-.024 0-.059-.012-.095-.012a.475.475 0 0 1-.439-.344c-.083-.214.178-.356.178-.356a.012.012 0 0 0 .012.012 1.374 1.374 0 0 0-.38-.4c-.083-.154-.178-.273-.273-.107a.273.273 0 0 0-.166.047c-.119-.083-.237-.131-.249.166.047.012.083.024.119.036a.686.686 0 0 0-.059.166c-.095.036-.19.059-.19.083.071.012.154.024.131.142-.071 0-.131.095-.024.131a2.942 2.942 0 0 1-.178.653 3.921 3.921 0 0 1-.688 1.032l-.083.083a1.457 1.457 0 0 0-1.02.463c.012.024.024.036.036.059a.83.83 0 0 0-.107.071c-.392.273-.759.593-1.139.89a4.116 4.116 0 0 0-.439.356 2.271 2.271 0 0 0-.214.261 2.024 2.024 0 0 0 .558.024 3.95 3.95 0 0 0 1.032-.32 4.247 4.247 0 0 1 .866-.344c.344-.059.605.261.736.332s.214.19 0 .19-.676-.166-1.032-.2-.593.261-1.115.463a2.213 2.213 0 0 1-1.21 0l-.024-.036a2.436 2.436 0 0 0-.427.5c-1.542-1.092-2.8.831-4.212-.012 1.02.154 1.1-.095 1.981-.273-.214-.985-1.685-.237-1.97-.842 1.258-.273 2.1.783 2.966.427-.19-.214-.522-.249-.617-.558l.012-.558c.332-.2 1.009.178 1.234-.415-.854.107-.985-.3-1.483-.142.356-.4-.332-.332-.368-.7a.51.51 0 0 0 .5-.285c-.558.036-2.385.166-2.231-.142-1.566.783-3.666.059-2.776-1.78.285.024.57.024.842.036.368.036 1.175.2 1.471-.119a.5.5 0 0 0 .142-.32.107.107 0 0 1 .012-.059s.083-.237.047-.32c.036-.225.047-.439.083-.664a.044.044 0 0 1 .012-.036c-.142-.166-.415-.095-1.056.047-.748.178-1.542-.273-1.531-.439s-.047-.57.178-.759.961.036 1.756.142a1.11 1.11 0 0 0 .819-.131c0-.036.012-.071.012-.107a.226.226 0 0 0 .083-.273 1.566 1.566 0 0 0 .024-.581.191.191 0 0 1 .047-.083.089.089 0 0 0-.059.012.328.328 0 0 1-.012-.107.652.652 0 0 0-.427-.534l-.024-.024c-.166-.131-.356-.237-.546-.368a1.943 1.943 0 0 1-.439-.486.405.405 0 0 0 .024-.178.579.579 0 0 1-.142-.012 3.543 3.543 0 0 0-.475-.617c0-.012-.012-.024-.024-.036-.629-.688-1.815-.475-2.705-.439 0-.012.012-.012.012-.036a.164.164 0 0 0-.047.036c-.095 0-.2.012-.285.012a.638.638 0 0 1 .119.392.293.293 0 0 1-.166.225l-.036.012c-.32.178-.5.273-.38.736a2.494 2.494 0 0 0 .131.415c.095.214.142.356-.083.57l-.285.285-.107-.142.285-.285c.142-.142.131-.166.047-.368a1.991 1.991 0 0 1-.154-.439c-.154-.629.154-.783.475-.961l.036-.024c.059-.036.071-.059.071-.083a.7.7 0 0 0-.178-.38 1.774 1.774 0 0 0-1.115.107.129.129 0 0 0-.059.012c0 .012-.012.024-.012.047a1.969 1.969 0 0 0-.166.154 9.085 9.085 0 0 0-.641.925 1.7 1.7 0 0 1-.178.131h.107c-.119.2-.225.415-.32.617a.98.98 0 0 1-.154.083c.261.083-.19.427.237.142-.059.178-.308.831-.131.842.154-.214.107-.629.5-.57 0 1.507-2.729 2.278-1.246 3.915.083-1.258 1.009-1.566 1.5-2.373 0 .142.107.166.131.285a4.938 4.938 0 0 0-1.115 1.258 2.311 2.311 0 0 1-.5 2.931c.819.605 1.068-.534 1.234-1.115.178.747-.629 1.127-.131 1.4-.285.558-1.2.854-.748 1.815.57.047.736-1.115 1.115-.831-.237.332-.083 1.127-.131 1.673.463.059.237-.676.629-.7-.059.392.463.13.486.415a1.817 1.817 0 0 0-.5 1.258c.3-.047.463-.214.866-.131 0 .51.178.451-.131.7.3.083.9-.166.985.142-.427-.012-.415.451-.748 1.115.724.237.581 1.27 1.234 1.27.427-.012.831-1.554 1.364-.973-.368.095-.368.605-.866.558-.047.4-.119.332-.38.7.273.356.724.5.985.842-.32-.036-.534.047-.5.427.332.107.249-.273.5-.285a9.785 9.785 0 0 0 .237 1.056c-.047.131-.107.261-.154.38a.248.248 0 0 0-.119.309 4.744 4.744 0 0 1-.593 1.08.967.967 0 0 0-.261.427 5.146 5.146 0 0 0-.356.831.259.259 0 0 0-.119.13.514.514 0 0 1 .059.012c-.131.368-.249.747-.415 1.1a.065.065 0 0 0-.059.036 16.092 16.092 0 0 0-.748 2.432.236.236 0 0 0-.095.178h.024a10.624 10.624 0 0 1-.486.973c-.012 0-.024.012-.036 0a.15.15 0 0 1-.012.071c-.095.154-.178.309-.273.463-.024.012-.059.012-.095.024a1.38 1.38 0 0 0-.047.214c-.107.166-.2.332-.308.51-.024.012-.024.036-.036.059-.036.071-.071.131-.107.2h-.131c-.32 1.044-1.234 1.4-1.993 1.958a2.424 2.424 0 0 0-2.1-.427 4.307 4.307 0 0 1-.344-3.868c.415-.237.89-.2 1.305-.5a.164.164 0 0 1 .047-.036c.107.012.2-.024.249-.2h-.024l.131-.154v.012c.012-.012.012-.036.024-.047a1.821 1.821 0 0 0 .308-.558 5.056 5.056 0 0 0 .2-1.4 2.593 2.593 0 0 0-.095-1.21.365.365 0 0 0-.059-.142c0 .036-.012.047-.012.071-.178-.119-.51.024-.664.083a1.177 1.177 0 0 0-.178.036c-.2-.024-.332 0-.261.214a1.785 1.785 0 0 0-.154.522 7.782 7.782 0 0 1-.2 1 .68.68 0 0 0-.047.166 4.614 4.614 0 0 1-.308.712 2.045 2.045 0 0 0-.225.522c-.047.2-.071.558-.225.7a.079.079 0 0 0-.024.083c-1.293 2.2-.237 4.805 1.661 5.138.546.095.4-.166.5.285.2-.427.854-.344 1.234-.558-.083.38.249.285.249.558-.439.107-.5 1.27-.131 1.115-.5.653-.914 1.982-2.112 1.4-.012.807 1.1.344 1.483.7-.748.332-1.448 1.281-2.468-.154-.522 1 .866.949 1.234 1.412-.024.2.047.51-.131.558-1.78-.688-2.148.961-2.112 2.088.036.024.083.036.119.059 0 .024-.012.036-.012.059.095.012.5.083.605.392.071.225-.047.51-.344.854a3.169 3.169 0 0 0-.937 1.578.9.9 0 0 1 .32.736c0 .451-.237.807-.546.807a.419.419 0 0 1-.166-.036c-.047.676-.273 1.519.214 1.993a.361.361 0 0 0 .083.059l.522-.57a4.562 4.562 0 0 0 .095.866l.024.024.617-.629a4.175 4.175 0 0 0 .237 1.246 1.913 1.913 0 0 0 1.139.439h.071l-.012-.012c.415-.452.605-.777.569-1.052z" fill="#94644d"/><path d="M32.511 55.957c.047.024.107.047.166.083a.544.544 0 0 0-.166-.083zm2.396-4.082zm-5.09 5.826a4.493 4.493 0 0 1 2.6.012 2.227 2.227 0 0 0-2.6-.012zm.738 1.958c-.012-.154.178-.214 0-.285-.024.356-.486.2-.5.558 1.1-.107 1.092-.688 1.614-1.531-.487.214-.463.949-1.114 1.258zm-8.569 10.766a2.842 2.842 0 0 1 .036-2.017 3.611 3.611 0 0 0 .083-2.278l-.154.083a3.562 3.562 0 0 1-.083 2.136 3.128 3.128 0 0 0-.036 2.148 4.5 4.5 0 0 1 .154.581 2.98 2.98 0 0 1-.937 3.192l.107.142a3.158 3.158 0 0 0 .985-3.382 3.192 3.192 0 0 0-.155-.605zm3.939-7.729c-.4.261-.819.522-1.222.819a4.326 4.326 0 0 0-1.993 2.705l.166.024a4.117 4.117 0 0 1 1.91-2.563 30.51 30.51 0 0 1 1.222-.807c1.341-.866 2.4-1.542 2.349-2.266l-.166.012c.036.593-1.043 1.281-2.266 2.076zm-2.278-18.688l.095.154a1.21 1.21 0 0 1 .9-.154.947.947 0 0 0 1.068-.392l.119-.178-.131-.119-.119.19a.79.79 0 0 1-.9.32 1.353 1.353 0 0 0-1.032.179zm-.735-.012c-.214.012-.534-.285-.641-.4l-.107.142c.047.047.427.439.748.439h.024a.306.306 0 0 0 .225-.119.538.538 0 0 0 .131-.392.728.728 0 0 0-.309-.451l-.095.154a.59.59 0 0 1 .237.32.506.506 0 0 1-.095.249c-.047.034-.071.058-.118.058zm-.57-1.091a.93.93 0 0 0 .439-.178 1.248 1.248 0 0 1 .724-.237 1.951 1.951 0 0 1 .273.024 2.01 2.01 0 0 0 .273.012.707.707 0 0 0 .344-.071.723.723 0 0 0 .558-.664h-.166a.536.536 0 0 1-.131.308c0-.024.012-.059.012-.083a.854.854 0 0 0-.581-1.02.6.6 0 0 0-.2-.036c-.795 0-1.637 1.424-1.673 1.483a.353.353 0 0 0-.047.332.164.164 0 0 0 .175.13zm0-.344c.012-.012.807-1.365 1.507-1.4a.664.664 0 0 0-.451.653.721.721 0 0 0 .19.5.2.2 0 0 1-.083-.012 1.473 1.473 0 0 0-.807.261.86.86 0 0 1-.356.154c-.012 0-.036 0-.036-.012a.181.181 0 0 1 .036-.146zm-2.254 3.5c.059.534-.486 1.578.237 2.1-.546-.724.261-2.005-.237-2.1zm12.34 8.294c-.534-.095-.047.985-.38 1.115.546.095.047-.971.38-1.115zm-5.078 1.103c-.083.546 0 .5-.131.842.712.167.546-.795.131-.842zm-3.81-8.827c.059.415-1.376 2.337-.131 2.515-.32-.154-.4-.57-.368-1.115.19-.332.522-.142.617-.285-.284-.095.25-.735-.118-1.115zm-1.482 1.803c-.617-.7-.071-1.4-.237-2.243-.368.309-.059.747-.38 1.258-.973-.475-.154-2.041-.605-2.8-.546 1.068.379 3.643 1.222 3.785zm-.618.428c-.9-.083-.427 1.578-.131 2.1-.059-.819-.521-1.638.131-2.1zm.62.284c-.024.392 1.187.605.985.285-.643.332-.679-.724-.985-.285zm4.067 1.127c-.237-.131-.581-.878-.747-.285 1.068 1.044 1.875-.522 2.978.154-.534-1.151-1.732.095-2.231.131zm-1.115.973a3.529 3.529 0 0 0 1.614 1.127c-.428-.309-1.796-1.519-1.614-1.127zm2.836 3.24c-.142-.32-.949-1.186-.866-.842.4.332.925 1.459 1.365.558-.486.344-.32-.724-.486-.285-.135.26.355.474-.013.569zm4.33 1.126c-.071.083-.3.664 0 .7-.107-.415.131-.427.332-.356a.924.924 0 0 1-.332-.344zm.487.416c.961.641 1.934.534 2.219 1.27-.226-1.151-1.46-.938-2.219-1.27zm-9.314-10.713h.095l-.012-.19a1.558 1.558 0 0 1-1.364-1.009l-.154.095a1.8 1.8 0 0 0 1.435 1.104zm.771 1.054a.261.261 0 0 1-.214-.095 1.252 1.252 0 0 1 .012-.783l-.154-.059a1.376 1.376 0 0 0 .012.961.4.4 0 0 0 .344.178 4.956 4.956 0 0 0 .866-.131 2.911 2.911 0 0 0 1.068.475l.036-.178a2.769 2.769 0 0 1-.866-.332 1.719 1.719 0 0 1 .831-.047l.047-.178a2.625 2.625 0 0 0-1.127.095c-.309.035-.618.094-.855.094zm5.387 32.321c.819.13 1.281.427 1.305 1.21l.214-.332c-.332-.64-.629-1.352-1.519-.878zm5.031-26.827c.024.012.047.012.059.024-.012-.012-.024-.012-.024-.024z" fill="#211917"/><path d="M27.954 99.549c8.638 2.492 11.331 5.517 12.6 7.333l.024.047a.012.012 0 0 1 .012-.012.012.012 0 0 0 .012.012l.024-.047c1.258-1.8 3.963-4.841 12.6-7.333 8.5-2.456 14.594-6.716 15.591-13.384H12.375c1 6.668 7.1 10.94 15.579 13.384z" fill="#bf3e1e"/><path d="M40.698 107.796l-.119-.154-.119.154-.285-.724c-1.364-1.934-4.141-4.758-12.34-7.119a30.372 30.372 0 0 1-10.75-5.185 13.452 13.452 0 0 1-5.138-8.531l-.071-.475h57.4l-.071.475a13.434 13.434 0 0 1-5.126 8.531 30.172 30.172 0 0 1-10.75 5.185c-8.2 2.373-10.975 5.185-12.34 7.119zM12.877 86.581a12.691 12.691 0 0 0 4.758 7.534 29.5 29.5 0 0 0 10.453 5.031c7.938 2.278 10.975 5.043 12.506 7.06 1.531-2.017 4.58-4.77 12.506-7.06a29.5 29.5 0 0 0 10.453-5.031 12.747 12.747 0 0 0 4.758-7.534z" fill="#211917"/><path d="M21.334 88.23h1.72c.9 0 1.483.676 1.471 1.732a1.465 1.465 0 0 1-1.471 1.661H21.31zm.842.7l-.012 1.981.629.012c.57 0 .854-.32.854-.973s-.273-1.009-.759-1.02zm3.999-.7h2.373l-.131.629-1.4-.012v.712h1.293v.617l-1.305-.012v.831l1.448.012.119.617h-2.409zm4.034 0h1.626c.842 0 1.376.4 1.364 1.068a1.1 1.1 0 0 1-1.127 1.056H31.04v1.27h-.831zm.831.617v.878h.759a.469.469 0 0 0 .522-.439c0-.273-.19-.439-.5-.439zm5.386-.711a1.675 1.675 0 0 1 1.756 1.8 1.762 1.762 0 1 1-1.756-1.8zm-.012 2.859c.558 0 .89-.4.89-1.068s-.32-1.056-.878-1.056-.878.392-.89 1.056c.012.652.332 1.067.878 1.067zm3.37-2.765l1.744.012c.783 0 1.293.38 1.293.973a.91.91 0 0 1-.783.914l.89 1.507h-.914l-.842-1.4h-.558v1.4h-.842zm.854.605v.771h.819c.3 0 .486-.154.486-.392 0-.214-.19-.368-.475-.38zm3.536-.605l3.346.012-.012.7H46.25l-.012 2.693h-.842l.012-2.693-1.246-.012zm4.948 0h.831l-.012 3.393h-.831zm2.444 0h.854l.925 2.326.925-2.326h.842l-1.353 3.393h-.842zm6.526-.094a1.681 1.681 0 0 1 1.756 1.8 1.7 1.7 0 0 1-1.768 1.792 1.8 1.8 0 0 1 .012-3.6zm-.012 2.871c.558 0 .89-.415.89-1.068s-.32-1.056-.878-1.056-.878.392-.89 1.056c0 .64.323 1.055.878 1.067zm-27.444 4.77a1.561 1.561 0 0 1-1.5.831 1.658 1.658 0 0 1-1.756-1.8 1.638 1.638 0 0 1 1.649-1.78 1.48 1.48 0 0 1 1.554.937l-.676.392a.861.861 0 0 0-.819-.629c-.522 0-.831.4-.831 1.092s.32 1.08.866 1.08a.969.969 0 0 0 .831-.57zm2.409-2.729l-.012 2.124c0 .451.2.664.605.664.439.012.653-.214.653-.676l.012-2.112h.842l-.012 2.349c0 .759-.5 1.151-1.483 1.151s-1.448-.392-1.436-1.163v-2.349h.831zm3.844.059l2.373.012-.13.617-1.412-.012v.712h1.293v.629l-1.293-.012v.819h1.448l.131.617h-2.41zm4.058 0l.985.012 1.2 1.993v-1.993h.807l-.012 3.393h-.914l-1.258-2.124v2.124h-.808zm7.985 2.658a1.561 1.561 0 0 1-1.5.831 1.8 1.8 0 0 1-.095-3.6 1.494 1.494 0 0 1 1.554.937l-.688.392a.848.848 0 0 0-.807-.629c-.522 0-.819.4-.831 1.092s.32 1.08.866 1.08a1.031 1.031 0 0 0 .842-.57zm2.563-2.658l1.068.012 1.21 3.393h-.831l-.214-.653h-1.4l-.225.653h-.83zm.534.712l-.486 1.365h.949z" fill="#fff"/><path d="M79.983 21.737H1.163l.024.059v66.92c0 10.845 8.946 17.6 21.856 21.322 12 3.465 15.745 7.677 17.5 10.18l.024.083c0-.012.012-.012.012-.024 0 .012.012.012.012.024l.036-.083c1.744-2.5 5.505-6.716 17.5-10.18 12.909-3.726 21.868-10.477 21.868-21.322v-66.92l.024-.059zM68.949 35.584v48.173c0 7.8-6.443 12.66-15.733 15.342-8.638 2.492-11.331 5.529-12.6 7.321l-.024.059-.012-.012-.012.012-.024-.059c-1.258-1.8-3.963-4.841-12.6-7.321-9.279-2.682-15.721-7.546-15.721-15.342V35.584l-.012-.036h56.738z" fill="#017b37"/><path d="M31.466 30.019a2.889 2.889 0 0 1-2.753 1.519 3.301 3.301 0 0 1-.178-6.6 2.749 2.749 0 0 1 2.848 1.72l-1.258.724a1.574 1.574 0 0 0-1.5-1.163c-.949 0-1.519.736-1.519 2.005s.581 1.981 1.59 1.993a1.8 1.8 0 0 0 1.531-1.056zm2.884-4.912h1.531l-.024 5 2.871.012v1.246l-4.4-.012zm8.65.036l-.012 3.9c0 .819.368 1.222 1.115 1.222.807 0 1.187-.4 1.2-1.234l.012-3.88h1.543l-.012 4.319c0 1.4-.926 2.124-2.741 2.112s-2.658-.724-2.646-2.124l.012-4.319zm7.095.023l3.2.012a2.352 2.352 0 0 1 1.72.522 1.366 1.366 0 0 1 .427.985c-.012.985-.949 1.27-1.507 1.436a2.514 2.514 0 0 1 .925.32 1.462 1.462 0 0 1 .807 1.317c0 1-.878 1.673-2.148 1.673l-3.441-.012zm1.531 1.127v1.305h1.4c.629 0 .973-.237.973-.676 0-.38-.344-.617-.937-.617zm0 2.444v1.529h1.542c.57.012.89-.249.89-.736 0-.546-.368-.807-1.127-.807h-1.305z" fill="#fff"/><path d="M68.948 35.549H12.209l.012.047v48.173c0 7.8 6.443 12.66 15.733 15.342 8.638 2.492 11.331 5.529 12.6 7.321l.024.059a.012.012 0 0 1 .012-.012l.012.012.024-.059c1.258-1.8 3.963-4.841 12.6-7.321 9.29-2.682 15.733-7.546 15.733-15.342V35.596l.012-.047zm-55.909 1.009h55.1l-.012.036v46.8a13.049 13.049 0 0 1-.2 2.29H13.253a11.458 11.458 0 0 1-.154-1.139c-.036-.38-.047-.759-.047-1.151V36.605l-.012-.036zm39.808 61.734c-8.389 2.421-11.011 5.363-12.233 7.119l-.024.059-.012-.012a.012.012 0 0 1-.012.012l-.024-.059c-1.222-1.744-3.844-4.7-12.233-7.119-7.653-2.207-13.313-5.944-14.855-11.64H67.69c-1.53 5.707-7.19 9.433-14.843 11.64z" fill="#211917"/><path d="M76.376 34.374a1.611 1.611 0 0 0-1.815.57c-.024.036-.059.047-.095.095a1.687 1.687 0 0 0-2.231-.534 1.684 1.684 0 0 0-.664.831c-.036.095-.083.19-.119.285v.842a3.5 3.5 0 0 0 1.139 1.8c.546.451 1.127.842 1.72 1.246a.371.371 0 0 0 .368-.012 23.493 23.493 0 0 0 1.934-1.507 2.552 2.552 0 0 0 .866-2.2 1.554 1.554 0 0 0-1.103-1.416zm0 17.643a1.611 1.611 0 0 0-1.815.57c-.024.036-.059.047-.095.095a1.687 1.687 0 0 0-2.231-.534 1.684 1.684 0 0 0-.664.831c-.036.095-.083.19-.119.285v.842a3.5 3.5 0 0 0 1.139 1.8c.546.451 1.127.842 1.72 1.246a.37.37 0 0 0 .368-.012 23.5 23.5 0 0 0 1.934-1.507 2.552 2.552 0 0 0 .866-2.2 1.554 1.554 0 0 0-1.103-1.416zm0 17.632a1.611 1.611 0 0 0-1.815.57.714.714 0 0 1-.095.095 1.687 1.687 0 0 0-2.231-.534 1.684 1.684 0 0 0-.664.831c-.036.095-.083.19-.119.285v.842a3.5 3.5 0 0 0 1.139 1.8c.546.451 1.127.842 1.72 1.246a.37.37 0 0 0 .368-.012c.653-.486 1.329-.961 1.934-1.507a2.552 2.552 0 0 0 .866-2.2 1.566 1.566 0 0 0-1.103-1.416zm0 17.643a1.611 1.611 0 0 0-1.815.57c-.024.036-.059.047-.095.095a1.687 1.687 0 0 0-2.231-.534 1.684 1.684 0 0 0-.664.831c-.036.095-.083.19-.119.285v.842a3.5 3.5 0 0 0 1.139 1.8c.546.451 1.127.842 1.72 1.246a.371.371 0 0 0 .368-.012c.653-.487 1.329-.961 1.934-1.507a2.564 2.564 0 0 0 .866-2.2 1.566 1.566 0 0 0-1.103-1.416zM66.018 99.691a1.611 1.611 0 0 0-1.815.57.717.717 0 0 1-.095.095 1.63 1.63 0 0 0-1.1-.724 1.6 1.6 0 0 0-1.115.19 1.684 1.684 0 0 0-.664.831c-.036.095-.083.19-.119.285v.842a3.5 3.5 0 0 0 1.139 1.8c.546.451 1.127.842 1.72 1.246a.371.371 0 0 0 .368-.012 23.5 23.5 0 0 0 1.934-1.507 2.52 2.52 0 0 0 .866-2.2 1.614 1.614 0 0 0-1.119-1.416zm-23.517 9.683a1.611 1.611 0 0 0-1.815.57c-.024.036-.059.047-.095.095a1.687 1.687 0 0 0-2.231-.534 1.684 1.684 0 0 0-.664.831c-.036.095-.083.19-.119.285v.842a3.5 3.5 0 0 0 1.139 1.8c.546.451 1.127.842 1.709 1.246a.37.37 0 0 0 .368-.012 23.5 23.5 0 0 0 1.934-1.507 2.52 2.52 0 0 0 .866-2.2 1.543 1.543 0 0 0-1.092-1.416zm-23.196-9.551a1.687 1.687 0 0 0-2.231.534.358.358 0 0 1-.095-.095 1.612 1.612 0 0 0-2.907.866 2.584 2.584 0 0 0 .866 2.2 22.131 22.131 0 0 0 1.934 1.507.4.4 0 0 0 .368.012c.581-.4 1.175-.795 1.72-1.246a3.547 3.547 0 0 0 1.139-1.8v-.842c-.036-.095-.083-.19-.119-.285a1.75 1.75 0 0 0-.675-.851zM8.602 34.374a1.611 1.611 0 0 0-1.815.57c-.024.036-.059.047-.095.095a1.63 1.63 0 0 0-1.1-.724 1.6 1.6 0 0 0-1.115.19 1.684 1.684 0 0 0-.664.831c-.036.095-.083.19-.119.285v.842a3.5 3.5 0 0 0 1.139 1.8c.546.451 1.127.842 1.72 1.246a.371.371 0 0 0 .368-.012 23.5 23.5 0 0 0 1.934-1.507 2.52 2.52 0 0 0 .866-2.2 1.581 1.581 0 0 0-1.119-1.416zm0 17.643a1.611 1.611 0 0 0-1.815.57c-.024.036-.059.047-.095.095a1.63 1.63 0 0 0-1.1-.724 1.6 1.6 0 0 0-1.115.19 1.684 1.684 0 0 0-.664.831c-.036.095-.083.19-.119.285v.842a3.5 3.5 0 0 0 1.139 1.8c.546.451 1.127.842 1.72 1.246a.37.37 0 0 0 .368-.012 23.5 23.5 0 0 0 1.934-1.507 2.52 2.52 0 0 0 .866-2.2 1.581 1.581 0 0 0-1.119-1.416zm0 17.632a1.611 1.611 0 0 0-1.815.57.716.716 0 0 1-.095.095 1.63 1.63 0 0 0-1.1-.724 1.6 1.6 0 0 0-1.115.19 1.684 1.684 0 0 0-.664.831c-.036.095-.083.19-.119.285v.842a3.5 3.5 0 0 0 1.139 1.8c.546.451 1.127.842 1.72 1.246a.37.37 0 0 0 .368-.012c.653-.486 1.329-.961 1.934-1.507a2.52 2.52 0 0 0 .866-2.2 1.594 1.594 0 0 0-1.119-1.416zm0 17.643a1.611 1.611 0 0 0-1.815.57c-.024.036-.059.047-.095.095a1.63 1.63 0 0 0-1.1-.724 1.6 1.6 0 0 0-1.115.19 1.684 1.684 0 0 0-.664.831c-.036.095-.083.19-.119.285v.842a3.5 3.5 0 0 0 1.139 1.8c.546.451 1.127.842 1.72 1.246a.371.371 0 0 0 .368-.012c.653-.487 1.329-.961 1.934-1.507a2.532 2.532 0 0 0 .866-2.2 1.594 1.594 0 0 0-1.119-1.416z" fill="#e9bd03"/><path d="M43.391 64.44l-.949-1.009.439-2.041.071-.012-.439-2.1.949-1.009a1.824 1.824 0 0 0 .225-.2 2.818 2.818 0 0 0 .593-2.741l-1.139-3.975a2.9 2.9 0 0 0-1.163-1.614 2.177 2.177 0 0 0-1.863-.285l-2.029-3.844a2.127 2.127 0 0 0 .688-.831 2.843 2.843 0 0 0-.249-2.788l-2.29-3.405a2.789 2.789 0 0 0-1.59-1.151 2.045 2.045 0 0 0-.522-.071l-1.483-.095-.427-.712h-2.1l1.1 1.709-.593 1.258a1.888 1.888 0 0 0-.154.261 2.843 2.843 0 0 0 .249 2.788l2.29 3.405a2.752 2.752 0 0 0 1.59 1.151.6.6 0 0 0 .154.024 7.138 7.138 0 0 0-.2 1.317 7.671 7.671 0 0 1-1.115.7c-1 .629-2.2 2.848-3.346 1.946a2.114 2.114 0 0 0 1.246-2.373c-.629.131-.819.759-1.732.546a2.681 2.681 0 0 0-.368-1.685c-.392-.024-.427.368-.5.7-.344-.036-.842-.107-1.483-.142a4.246 4.246 0 0 1 0-1.827c1.863.724 3.358-.036 3.109-1.815-.142-.961-1.151-1.163-.985-2.385-.427.012-1.329 0-1.483.7-1.578-1.436-2.646-3.429-5.683-3.227-.071-.5.439-.344.38-.842-1.163.083-2.385.107-2.61 1.246-.4.036-.3-.5-.5-.7-.605.154-.368 1.293-.131 1.685-.451.2-.985-.154-1.614-.142a.893.893 0 0 0 .368 1.127c-.036.332-.546.083-.629 0-.142.759.3.878.368 1.4-.392-.119-.463.119-.617.285-.047.605.688.344.617.985a2.043 2.043 0 0 0 .605 3.215c-.095.89-.878.071-1.115-.142a1.424 1.424 0 0 0 .866 1.958c-.451 1.21.344 1.72.249 2.658.38.095.451-.142.736-.142-.095 1.032.546 1.246.486 2.243.463.012.486-.475 1.115-.285 0 1.305.748 1.756 1.353 2.385a2.815 2.815 0 0 1-.38.831 1.273 1.273 0 0 0 1.234.985c-1.91 3.346-2.171 8.673-5.719 10.477a1.138 1.138 0 0 0-.368-1.4c-.546-.047-.249.842-.5 1.115-1.4.261-1.293-2.053-.736-2.8a2.728 2.728 0 0 1 1.246-.13 5.531 5.531 0 0 0 1-3.785c2.337-2.5 1.768-8.4-1.2-9.658-.036-.51.344-.546.368-.985-.522-.392-.866.451-1.234.7-.3-.19-.854-.071-1.115-.3-.486-.712-.036-1.258.249-1.815-.605-1-1.614-.641-1.958.225v.5a2.713 2.713 0 0 1 .095.664 9 9 0 0 1-.095 1.032v2.254a1.81 1.81 0 0 0 .581.641.975.975 0 0 0-.249.415.555.555 0 0 1-.332.024v1.258a2.082 2.082 0 0 0 2.682-.427c.475.392.57 1.222 1.222 1.4.605-.344-.368-1.056.131-1.673 1.91.119 1.02 3.654.107 4.2-.059-.368.7-1.234.249-2.1a23.425 23.425 0 0 0-1.732 2.243c-.546.012-1.092.024-1.115-.57.392-.071.439.261.866.142.071-.914-.154-1.163-.617-1.27-1.685-.344-1.115 3.643.486 3.643-.759.38-.949-.32-1.732-.285a1.361 1.361 0 0 0 1.234 1.542c-1.436 2.29-1.531 6.621 1.329 7.143.214 1.329-.19 1.353-.38 2.385-.57-.2-.748-.831-1.364-.985-.415-.012-.546.32-.748.558.2.427.89.285 1.115.7-.214.308-.2 1.258.119 1.4-1.092.356-.842 2.219-1.744 2.788-.107.629.2.795.249 1.258a.9.9 0 0 1-.38-.083v4.558c0 .392.024.771.047 1.151a3.544 3.544 0 0 0 .795.392c.617.237 1.471 1.163 1.851 1.27a2.342 2.342 0 0 0 1.115-.047.3.3 0 0 1 .083.142c.095.285.285-.071.285-.214a.69.69 0 0 1 .736.273c.356-.024.225-.593.249-.985.439.024.558.392.985.427a2.649 2.649 0 0 0 .131-1.127c.51.047.486-.178.866 0-.9-.866-.842-2.456-2.1-2.67-.368-.059-.878.368-1.364.273-.688-.131-2.231-1.258-1.483-2.112.5-.047.32.664.617.842.629-.368.819-1.222.748-2.373 1.6.178 2.266-.688 3.215-1.246-.024.617.308.866.368 1.4-.332.356-.653-.095-1.115 0 .807 2.622 3.2-.866 4.461.154.024.581-.985 0-.866.7.534.593 1.376.012 1.614-.558-.154-.985-.676-1.554-.356-2.385-.119-.51-.558-.676-.854-.985-.107.107-.107.451-.131.985-.759.071-.664-.831-.985-1.258.024-.166.131-.083.131 0 .807-1.7 2.48-3.168 2.124-5.731.724-.178 1.329 1.009 1.851 1.542-.071.866.047 1.246-.748 1.4.308.261.475-.012 1 .142-.522.214-.807.664-.748 1.531a2.979 2.979 0 0 0-1.364.273c.071.13.142.249 0 .273.5.107.036.166.617.285-.4.7.4.581.736.842-.392.736-.546 1.554.486 1.685-.047.4-.427.439-.617.688-.036.546.9.451.5.985.3-.119.712-.119.736-.558.249.261.522.985.368 1.258.427-.13.5-.653.985-.7.166.605-.3.5-.38.842.427-.071.653-.38.985-.558.154 1 .9 1.317 1.1 2.243a.892.892 0 0 0 .427-.356 2.651 2.651 0 0 0 .249 1.353c.047.095.095.178.142.261l.605 1.27-.937 1.436h2.088l.261-.451 1.483-.095a1.977 1.977 0 0 0 .522-.071 2.789 2.789 0 0 0 1.59-1.151l2.29-3.393a2.819 2.819 0 0 0 .261-2.788 2.393 2.393 0 0 0-.688-.842l2.029-3.832a2.2 2.2 0 0 0 1.851-.285 2.858 2.858 0 0 0 1.163-1.614l1.151-3.975a2.822 2.822 0 0 0-.605-2.741 2.028 2.028 0 0 0-.165-.134zM13.574 52.705c0-.119 0-.237.012-.368.012-.059.083-1.281.3-1.341.285-.059.4.629.522.807.38.546 1.1.629 1.673.831a2.321 2.321 0 0 1 1.637.937 1.547 1.547 0 0 1 .119.178 5.246 5.246 0 0 0-2.931-.664c-.11-.783-.941-.534-1.332-.38zm3.88 2.824a1.637 1.637 0 0 0-.736.083 4.241 4.241 0 0 1-1.092.142c-.285-.012-.51-.19-.676.119-.036.059-.083.368-.142.415a.579.579 0 0 1-.57.071.483.483 0 0 1-.273-.344c-.095-.415.2-.925.119-1.329-.059-.3-.32-.522-.427-.807a2.145 2.145 0 0 0 .57-.012c.178-.012.653-.012.676-.57l.012.012c.024 0 2.171-.2 3.215.961a3.083 3.083 0 0 1 .558 2.136c-.036-.083-.237-.237-.261-.261a1.559 1.559 0 0 0-.974-.616zm20.835-3.88a.728.728 0 0 1 .332-.214l1.875-.581a.853.853 0 0 1 .724.131 1.475 1.475 0 0 1 .57.795l1.139 3.975a1.4 1.4 0 0 1-.119 1.127l-.261.285a1.416 1.416 0 0 1-.19.095l-1.875.581a.847.847 0 0 1-.724-.119 1.293 1.293 0 0 1-.451-.522 1.089 1.089 0 0 1-.107-.273l-1-3.465-.142-.51a1.28 1.28 0 0 1 .229-1.305zm-4.129-6.49l-2.29-3.405a1.422 1.422 0 0 1-.225-1.115l.166-.344a.948.948 0 0 1 .154-.154l1.614-1.163a.855.855 0 0 1 .724-.119 1.36 1.36 0 0 1 .771.57l2.29 3.405a1.317 1.317 0 0 1 .154 1.305.744.744 0 0 1-.261.308l-1.614 1.163a.848.848 0 0 1-.724.119 1.415 1.415 0 0 1-.759-.572zm-5.173-2.515a1.1 1.1 0 0 0 .154.747c.546.581.973 1.187.759 1.792s-.368.534-1.02.629c.534-.059.759-1.08.38-1.614a4.924 4.924 0 0 0-.593-.676.478.478 0 0 1 .319-.878zm-1.222.914a6.667 6.667 0 0 1 1.115 1.258c-.166.724-1.471.415-1.851.142a1.792 1.792 0 0 0 .735-1.401zM13.634 80.293a12.516 12.516 0 0 0 .617-1.732 1.869 1.869 0 0 0-.095-.475.413.413 0 0 1 .178.083c0-.024.012-.036.012-.059.154.024.451.107.5.261s-.059.38-.308.664a3.428 3.428 0 0 0-.985 1.649.107.107 0 0 0-.059-.012h-.012a4 4 0 0 1 .151-.38zm9.551-10.074c.214.036.356.142.285.475.285-.083-.142-.214.131-.415.036-.142.3 1.02-.249 1.115 0 .142.154.107.249.142-.57 1.815-3.037 3.761-1.258 5.731.38-.166.486-.095.748.142-.119.3-.38.415-.38.842-.522-.368-1.115.89-1.732.415.107-.154.285.012.5-.273-.225-.439-.38-.083-.866-.142a8.773 8.773 0 0 0-.985-2.527c-.261.047.012.617.119.7-.593 1.317-2.219 1.459-3.714 1.732v.012a1.4 1.4 0 0 1 .107.9c.012.047.012.083.024.131l-.071-.036a.93.93 0 0 1-.392.309c-.285.154-.641.237-.831.653a1.551 1.551 0 0 0-.178 1.009c.059.4 1.032 1.175 1.044 1.175a5.413 5.413 0 0 0 1.412.237 3.693 3.693 0 0 1 1.187.178c.439.142.854.926.475 1.293a1.553 1.553 0 0 0-.071-.32 1.8 1.8 0 0 0-.973-.842l-.047.178a1.723 1.723 0 0 1 .866.748.936.936 0 0 1 .059.356c-.178.119-.332.214-.475.308a.915.915 0 0 0-.095-.439 1.349 1.349 0 0 0-.914-.605l-.024.19a1.145 1.145 0 0 1 .795.51.85.85 0 0 1 .059.463c-.119.083-.237.166-.38.285s-.38.32-.617.475v.012c-.095.059-.178.119-.273.166a1.024 1.024 0 0 0 .356-.866c-.095-.593-.937-.842-.961-.854l-.047.178s.771.237.842.712c.047.273-.154.593-.57.949l.012.012h-.071a1.868 1.868 0 0 1-1.139-.439 4.117 4.117 0 0 1-.237-1.246l-.617.629-.024.012a.044.044 0 0 0-.012-.036 4.562 4.562 0 0 1-.095-.866l-.522.57c-.024-.024-.059-.036-.083-.059-.486-.475-.261-1.317-.214-1.993a.419.419 0 0 0 .166.036c.308 0 .546-.356.546-.807a.867.867 0 0 0-.32-.736 3.168 3.168 0 0 1 .937-1.578c.3-.332.415-.629.344-.854a.726.726 0 0 0-.605-.392c0-.024.012-.036.012-.059a.226.226 0 0 1-.119-.059c-.047-1.139.32-2.776 2.112-2.088.166-.047.107-.344.131-.558-.368-.463-1.756-.4-1.234-1.412 1.02 1.436 1.72.475 2.468.154-.38-.356-1.5.095-1.483-.7 1.187.581 1.614-.736 2.112-1.4-.368.154-.308-1.009.131-1.115 0-.285-.332-.178-.249-.558-.38.214-1.032.13-1.234.558-.083-.439.047-.19-.5-.285-1.91-.332-2.954-2.943-1.661-5.138a.113.113 0 0 1 .024-.083c.154-.142.178-.5.225-.7a2.569 2.569 0 0 1 .225-.522 3.7 3.7 0 0 0 .308-.712.68.68 0 0 1 .047-.166 7.782 7.782 0 0 0 .2-1 2.03 2.03 0 0 1 .154-.522c-.083-.214.047-.237.261-.214a1.18 1.18 0 0 1 .178-.036c.154-.059.486-.2.664-.083a.15.15 0 0 0 .012-.071c.024.047.036.095.059.142a2.594 2.594 0 0 1 .095 1.21 5.543 5.543 0 0 1-.2 1.4 1.5 1.5 0 0 1-.308.558c-.012.012-.012.036-.024.047v-.012l-.131.154h.024c-.047.19-.154.214-.249.2a.163.163 0 0 1-.047.036c-.4.3-.878.273-1.305.5a4.3 4.3 0 0 0 .344 3.868 2.5 2.5 0 0 1 2.1.427c.748-.546 1.661-.914 1.993-1.958h.131c.036-.059.071-.131.107-.2.012-.024.012-.047.036-.059.095-.178.2-.344.308-.51a1.379 1.379 0 0 1 .047-.214c.036-.012.071-.012.095-.024.095-.154.19-.308.273-.463a.151.151 0 0 1 .012-.071h.036a10.628 10.628 0 0 0 .486-.973h-.024a.183.183 0 0 1 .095-.178 14.5 14.5 0 0 1 .748-2.432.065.065 0 0 1 .059-.036c.166-.356.285-.736.415-1.1-.024 0-.036-.012-.059-.012.036-.071.071-.119.119-.131a5.149 5.149 0 0 1 .356-.831 1.039 1.039 0 0 1 .261-.427 4.5 4.5 0 0 0 .593-1.08.248.248 0 0 1 .119-.309 3.624 3.624 0 0 0 .154-.38c-.131-.3-.131-.736-.237-1.056-.249 0-.166.392-.5.285-.036-.368.178-.463.5-.427-.261-.344-.724-.486-.985-.842.261-.368.332-.3.38-.7.5.047.5-.463.866-.558-.534-.57-.937.973-1.364.973-.653.012-.51-1.032-1.234-1.27.332-.664.32-1.127.748-1.115-.095-.32-.688-.059-.985-.142.308-.249.131-.19.131-.7-.4-.083-.581.095-.866.131a1.872 1.872 0 0 1 .5-1.258c-.036-.285-.546-.036-.486-.415-.392.024-.166.759-.629.7.059-.558-.107-1.341.131-1.673-.38-.285-.546.878-1.115.831-.451-.961.463-1.27.748-1.815-.5-.285.308-.653.131-1.4-.178.593-.415 1.72-1.234 1.115a2.3 2.3 0 0 0 .5-2.931 5.688 5.688 0 0 1 1.115-1.258c-.024-.119-.131-.142-.131-.285-.475.807-1.412 1.115-1.5 2.373-1.483-1.649 1.246-2.409 1.246-3.915-.392-.059-.344.356-.5.57-.19-.012.059-.664.131-.842-.427.285.012-.059-.237-.142.047-.024.107-.059.154-.083.095-.2.2-.415.32-.617h-.102a.568.568 0 0 0 .178-.131 9.084 9.084 0 0 1 .641-.925.658.658 0 0 1 .166-.154c0-.024 0-.036.012-.047a.129.129 0 0 1 .059-.012 1.775 1.775 0 0 1 1.115-.107.744.744 0 0 1 .178.38c0 .024-.012.059-.071.083l-.036.024c-.32.178-.629.332-.475.961a2.252 2.252 0 0 0 .154.439c.083.19.095.225-.047.368l-.285.285.107.142.285-.285c.225-.214.178-.356.083-.57a1.721 1.721 0 0 1-.131-.415c-.119-.475.059-.558.38-.736l.036-.012a.312.312 0 0 0 .166-.225.609.609 0 0 0-.119-.392 2.382 2.382 0 0 0 .285-.012c.012-.012.024-.012.047-.036a.044.044 0 0 1-.012.036c.89-.036 2.065-.249 2.705.439.012.012.024.024.024.036a3.544 3.544 0 0 1 .475.617.532.532 0 0 0 .142.012.405.405 0 0 1-.024.178 1.59 1.59 0 0 0 .439.486c.178.131.368.237.546.368l.024.024a.634.634 0 0 1 .427.534.328.328 0 0 0 .012.107.129.129 0 0 0 .059-.012c-.012.024-.036.059-.047.083a1.35 1.35 0 0 1-.024.581.213.213 0 0 1-.083.273c0 .036-.012.071-.012.107a1.125 1.125 0 0 1-.819.131c-.795-.107-1.531-.332-1.756-.142s-.166.581-.178.759.783.617 1.531.439c.653-.154.914-.214 1.056-.047a.044.044 0 0 1-.012.036c-.036.214-.059.439-.083.664.047.083-.047.32-.047.32a.513.513 0 0 0-.012.059.53.53 0 0 1-.142.32c-.308.332-1.115.154-1.471.119-.285-.024-.57-.012-.842-.036-.89 1.851 1.222 2.575 2.776 1.78-.154.309 1.661.178 2.231.142a.55.55 0 0 1-.5.285c.036.368.724.3.368.7.5-.154.629.249 1.483.142-.225.593-.914.214-1.234.415l-.012.558c.095.309.439.356.617.558-.866.356-1.709-.7-2.966-.427.285.605 1.756-.131 1.97.842-.866.178-.961.427-1.981.273 1.412.842 2.67-1.08 4.212.012a2.87 2.87 0 0 1 .427-.5c-.012.012.024.036.024.036a2.214 2.214 0 0 0 1.21 0c.522-.2.759-.486 1.115-.463s.807.2 1.032.2.131-.119 0-.19-.4-.392-.736-.332a6.264 6.264 0 0 0-.866.344 3.95 3.95 0 0 1-1.032.32 2.024 2.024 0 0 1-.558-.024 2.273 2.273 0 0 1 .214-.261c.142-.131.3-.249.439-.356.392-.285.747-.617 1.139-.89l.107-.071a.259.259 0 0 1-.036-.059 1.391 1.391 0 0 1 1.02-.463.548.548 0 0 1 .083-.083 4.125 4.125 0 0 0 .688-1.032 3.763 3.763 0 0 0 .178-.653c-.107-.036-.047-.13.024-.13.024-.119-.059-.131-.131-.142 0-.024.095-.047.19-.083a1.441 1.441 0 0 1 .059-.166c-.036-.012-.071-.024-.119-.036v-.024a2.345 2.345 0 0 0 .629-.166c.024.024.036.059.059.083a1.169 1.169 0 0 1 .368.392c-.012.012-.249.142-.178.356a.461.461 0 0 0 .439.344c.036 0 .071.012.095.012.024.047.036.095.059.142.059.012.083.047.071.178a2.574 2.574 0 0 1 .083.285c-.012.024-.036.047-.047.071-.131.308-.225.225-.439.273s-.712-.059-1 0-.3.32 0 .332a6.655 6.655 0 0 1 .973-.071c.558.047.546.795.522.914a1.4 1.4 0 0 1-.225.463 2.109 2.109 0 0 1-.38.415 7.606 7.606 0 0 0-1.542-.854 3.1 3.1 0 0 1 .581 1.59c-.059.059-.095.107-.095.142-.261.059-.32-.095-.486-.142.012-.036-.119-.036-.131 0a.428.428 0 0 1-.178-.095.12.12 0 0 1-.059-.024 1.663 1.663 0 0 1-.4-.214c-.356-.214-.32-.166-.214.142a5.042 5.042 0 0 1-.012 1.305c-1.234-.605-1.887.641-3.1 1.115-.095-1.258-2.326-.486-3.334-1.27-.095.427.344.273.249.7.047-.724 2.634.154 2.966.57.083.38-.249.285-.261.558 1.2-.368 1.851-2.029 3.346-1.388a9.1 9.1 0 0 0-.38 2.1c1.317-.427 3 .475 3.654-.831l.439 1.519a4.395 4.395 0 0 0-1.365-.4c.38.688 1.649.392 1.353 1.827-.261.13-.368.427-.747.415-.522-.071-.57-.664-.985-.842-.273.415-.356 1.388-.985.985-.261-.4-.154-1.222-.985-.985 0 .368.047.795-.131.973-.51-.024-.676-.451-1.115-.558.2.463.878.4.736 1.258a2.467 2.467 0 0 0-1.744 1.531 8.278 8.278 0 0 0-3.405 1.27c.012.059-.641.486-.439.4a8.389 8.389 0 0 0-1.222.937c-.178.19-.522.581-.534.593.012 0-.961.914-1.009.949-.119.142-.842 1.281-.89 1.293a6.4 6.4 0 0 0-.831 2.67 1.894 1.894 0 0 0 .024.261l-.036.036v.237h.047a.356.356 0 0 1-.047.095.9.9 0 0 1-.012.178.173.173 0 0 0 .047-.142h.249c.237.214-.225.581.237.7-.024.273-.261.3-.534.285-.008.142-.008.166-.008.189zm-6.894.736a2.081 2.081 0 0 1 1.353.142c-.083.629.024.747-.38 1.127a1.64 1.64 0 0 1-.973-1.267zm10.1-23.054c-.392.57-1.364.451-1.981.415v-.7a6.39 6.39 0 0 1 1.978.284zm9.29 6.692a.653.653 0 0 1-.261-.024.579.579 0 0 1-.131-.047.226.226 0 0 1-.119-.059c0 .012 0 .012-.012.012s-.012.024-.024.036c-.012-.036-.036-.071-.047-.107a.327.327 0 0 0-.071-.095l-.012-.012c-.012 0-.012-.012-.024-.012s-.012-.012-.024-.012-.012-.012-.024-.012h-.012c-.19-.024-.38.32-.688.368-.024 0-.059.012-.083 0a15.439 15.439 0 0 0 .392-1.958.98.98 0 0 0 .154.083c.012 0 .012 0 .024.012.047.024.095.036.142.059.012 0 .012.012.024.012.047.012.083.024.131.036h.024a.445.445 0 0 0 .119.012h.024a.4.4 0 0 0 .119-.012h.012a.346.346 0 0 0 .107-.024.421.421 0 0 0 .107-.047h.012c.036-.024.059-.036.095-.059a.012.012 0 0 0 .012-.012c.024-.024.059-.036.083-.059l.024-.024.071-.071.024-.024.059-.059c.012-.012.024-.036.047-.047l.036-.036c.119-.142.225-.309.344-.439a1.264 1.264 0 0 1 .107-.131c-.036.119-.083.225-.119.344a5.48 5.48 0 0 1 .439-.593 3.046 3.046 0 0 0-.024 1.756l.083.285a.164.164 0 0 1-.036.047c-.012.012-.012.024-.024.036a.248.248 0 0 0-.047.071 1.977 1.977 0 0 1-.712.783c0 .012-.024.024-.047.024-.024.012-.047.012-.071.024s-.036.012-.059.024c0-.024.012-.024.024-.047zm-10.845 13.87c-.119 0-.095.178-.119.273.273.5-.273-.534-.249-.142-.214-.356-.2-.095-.5-.285.119-.19.593-.036.985.142-.013.178-.119.094-.119.011zm6.194 11.106l-.214.332-.142.214a2.657 2.657 0 0 0-.261.475c-.154.036-.249.178-.415.344-.32-.107-.427-.451-.368-.985.368-.012.819-.071.736.415.451-.664-.866-.9-.973-.225.059-.807-.641-2.219-1.614-1.317-.368-.166.131-.475 0-.831-.534.451-.89.368-1.483-.012.32-.605-.285-.724-.617-.985.131-.854 1.614-1.483 1.9-2.148a1.811 1.811 0 0 1-.036-.356c-.344.439-.878 1.353-1.732.961.19-.439.736.178.866-.131-.012-.356-.178-.546-.5-.558.083-.119.154-.249 0-.273a1.007 1.007 0 0 1 .866-.285c-.3-.356.19-.249.249-.142.273-.083-.154-.225.131-.415a.892.892 0 0 0 .178 0c0-.047.012-.083.012-.13a3.058 3.058 0 0 0-.142-1.982c-.047-.083-.107-.154-.154-.249a.6.6 0 0 1-.142-.024.481.481 0 0 0 .059-.107 2.69 2.69 0 0 1-.154-.237c-.012.024-.024.036-.024.059a.474.474 0 0 0-.368-.142.534.534 0 0 1 .225-.166c-.095-.154-.2-.3-.308-.451-.261-.392-.522-.807-.783-1.2a.507.507 0 0 1-.2-.309 1.993 1.993 0 0 0-.214-.249 1 1 0 0 1-.285-.273 7.022 7.022 0 0 0-.57-.415c-.392-.261.071-.51.308-.5.866.012 1.732.047 2.61.047a3.549 3.549 0 0 1 1.317.19c.012-.012.012-.024.024-.024.059.012.083.036.083.071.012.012.036.012.059.024a1.573 1.573 0 0 1 .237.142c.071 0 .154.047.237.19.178.154.344.32.534.475a1.78 1.78 0 0 0 .38.225c.036-.024.095-.036.2.012a.169.169 0 0 0-.024.071c.249.095.5.178.759.285a.892.892 0 0 1 .522.676.107.107 0 0 0 .012.059c.19.036.32.332.332.036.38.178-.131.427-.249.142l-.071.107a3.475 3.475 0 0 1-.237 1.2.239.239 0 0 0 .047.095c.166.178.059.131-.107.071-.107.261-.225.51-.344.736a7.017 7.017 0 0 1-.724 2.278 1.746 1.746 0 0 1-.57.605v.083c-.012-.012-.024-.036-.047-.059-.036.012-.071.047-.119.047a2 2 0 0 0-1 1.637.041.041 0 0 1-.012.024 2.71 2.71 0 0 0 1.4 1.7 6.982 6.982 0 0 0 1.5.273zm6.289.309l-2.29 3.405a1.345 1.345 0 0 1-.771.57.847.847 0 0 1-.724-.119l-1.614-1.163a.948.948 0 0 1-.154-.154l-.166-.356a1.4 1.4 0 0 1 .012-.664 1.7 1.7 0 0 1 .2-.451l.558-.831.261-.392.546-.795.38-.57.38-.57.178-.261a1.4 1.4 0 0 1 .771-.57.847.847 0 0 1 .724.119l1.614 1.163a1.1 1.1 0 0 1 .261.309 1.457 1.457 0 0 1-.169 1.329zm-.795-3.892l-.119-.083a2.2 2.2 0 0 0-1.863-.344 2.789 2.789 0 0 0-1.59 1.151l-.57.842c-1.353.32-2.717.38-3.121-1.1.178-.925 1.175-1.056 1.614-1.673.392-.57.19-1.353.878-1.673.2.771.558 2.254 1.6 1.258-.486-.463-.3-1.092 0-1.685-.142-.9-.842-1.187-1.1-1.97.392.036.522-.249.985-.13-.653-.747-.214-2.124-.973-2.527-.356.142.024.605-.012.842-.653.154-.914-1.27-2.1-.985-.724-1.7-3.2-1.424-5.446-1.424a2.128 2.128 0 0 1 .249-1.115c.119-.214.617-.332.866-.558.949-.878 2.5-2.812 3.476-3.346s2.515.036 2.717-1.246a4.72 4.72 0 0 0 1.732 0c0 .012-.012.012-.012.036a3.679 3.679 0 0 0 .593-.344c.047-.415.095-.819.166-1.222.427.131.831.285.985.7.309-.107.178-.736.38-.973a.2.2 0 0 1 .225.083c.368.024.736.119 1.1.178.261-.415.688-.653 1.02-.439v-.071a2.654 2.654 0 0 0 .771.771 1.974 1.974 0 0 0 .475.237l1.376.57.309 1.459-.024.119-.344 1.614-1.376.57a2.532 2.532 0 0 0-.475.237 2.858 2.858 0 0 0-1.163 1.614l-1.151 3.975a2.8 2.8 0 0 0 .605 2.729 2.233 2.233 0 0 0 .925.581l.107.036zm6.36-9.029l-1.151 3.975a1.4 1.4 0 0 1-.558.795.853.853 0 0 1-.724.131l-1.875-.581a.672.672 0 0 1-.332-.214 1.322 1.322 0 0 1-.249-1.293l1.151-3.975a1.4 1.4 0 0 1 .558-.795.853.853 0 0 1 .724-.119l1.876.576a1.052 1.052 0 0 1 .2.095l.273.285a1.527 1.527 0 0 1 .103 1.12z" fill="#211917"/><path fill="#bf3e1e" d="M61.841 35.987h3.5v50.261h-3.5z"/><path d="M65.757 86.652h-4.343V35.584h4.343zm-3.5-.807h2.657V36.391h-2.658z" fill="#211917"/><path fill="#bf3e1e" d="M54.852 35.987h3.512v50.261h-3.512z"/><path d="M58.78 86.652h-4.343V35.584h4.343zm-3.512-.807h2.67V36.391h-2.67z" fill="#211917"/><path fill="#bf3e1e" d="M47.864 35.987h3.5v50.261h-3.5z"/><path d="M51.792 86.652h-4.343V35.584h4.343zm-3.512-.807h2.67V36.391h-2.67z" fill="#211917"/><path fill="#bf3e1e" d="M40.876 35.987h3.5v50.261h-3.5z"/><path d="M44.803 86.652H40.46V35.584h4.343zm-3.5-.807h2.67V36.391h-2.67z" fill="#211917"/><path d="M61.854 50.309l.071.119a7.443 7.443 0 0 0-.664-2.966 7.559 7.559 0 0 0-.356-.688l-.036.392zm-4.747 6.882l-.332.475a7.586 7.586 0 0 0 3.524-2.48l-.368.107zm-2.753-14.179a8.453 8.453 0 0 0-1.459.142l.237.119 3.69.261.2-.036a7.546 7.546 0 0 0-2.668-.486zm-5.718 11.9l-.546-.142a7.478 7.478 0 0 0 3.583 2.824c.059.024.131.036.19.059l-.332-.534zm-.047-8.412l-.024-.807a7.4 7.4 0 0 0-1.768 4.5l.546-.581zm.735 5.233l2.444-.653 1.1-2.9-1.436-2.1-2.361.463-1.281 3.192zm5.539 1.685l-.2 2.527 2.159.866 2.693-1.8.154-2.4-2.231-.854zm1.449-5.281l1.637-1.97-1.246-2.171-3.334-.225-1.507 2.065 1.5 2.159zm1.199 3.121l2.326.9 1.5-1.91-.878-2.8-2.112-1.009-1.631 1.96zm-8.069.95l-.237 2.539 2.515 1.91 2.468-.795.2-2.385-2.421-1.922z" fill="#fff"/><path d="M54.863 53.418l-.2 2.527 2.159.866 2.693-1.8.154-2.4-2.231-.854zm-5.421-1.21l-.237 2.539 2.515 1.91 2.468-.795.2-2.385-2.421-1.922zm6.87-4.071l1.637-1.97-1.246-2.171-3.334-.225-1.507 2.065 1.5 2.159zm4.545-.984l1 3.156.071.119a7.443 7.443 0 0 0-.664-2.966 7.559 7.559 0 0 0-.356-.688zm-3.346 4.105l2.326.9 1.5-1.91-.878-2.8-2.112-1.009-1.631 1.96zm-9.718-1.519l1.531 1.993 2.444-.653 1.1-2.9-1.436-2.1-2.361.463zm9.314 7.452l-.332.475a7.586 7.586 0 0 0 3.524-2.48l-.368.107zm-8.471-2.279l-.546-.142a7.478 7.478 0 0 0 3.583 2.824c.059.024.131.036.19.059l-.332-.534zm-.047-8.412l-.024-.807a7.4 7.4 0 0 0-1.768 4.5l.546-.581z" fill="none"/><path d="M48.636 54.912l-.546-.142a7.478 7.478 0 0 0 3.583 2.824c.059.024.131.036.19.059l-.332-.534zm3.132-3.827l1.1-2.9-1.436-2.1-2.361.463-1.281 3.192 1.531 1.993zm-3.203-5.392a7.4 7.4 0 0 0-1.768 4.5l.546-.581 1.258-3.109zm8.269-2.159l.2-.036a7.547 7.547 0 0 0-2.67-.486 8.452 8.452 0 0 0-1.459.142l.237.119zm-.522 4.603l1.637-1.97-1.246-2.171-3.334-.225-1.507 2.065 1.5 2.159zm2.03-1.696l-1.626 1.958.795 2.859 2.326.9 1.5-1.91-.878-2.8zm2.907 1.02a7.528 7.528 0 0 0-.356-.688l-.036.392 1 3.156.071.119a7.468 7.468 0 0 0-.679-2.979zm-11.807 4.747l-.237 2.539 2.515 1.91 2.468-.795.2-2.385-2.421-1.922zm7.665 4.983l-.332.475a7.586 7.586 0 0 0 3.524-2.48l-.368.107zm2.409-2.183l.154-2.4-2.231-.854-2.575 1.661-.2 2.527 2.159.866z" fill="none"/><path d="M61.557 47.319a7.962 7.962 0 0 0-1.6-2.29l-.071-.071a6.091 6.091 0 0 0-.5-.451 7.947 7.947 0 0 0-.712-.534 7.331 7.331 0 0 0-.937-.534c-.024-.012-.059-.036-.083-.047l-.024-.012h-.024c-.154-.071-.32-.142-.486-.214a7.95 7.95 0 0 0-2.788-.51 7.517 7.517 0 0 0-1.934.249l-.012-.012h-.024a1.254 1.254 0 0 1-.225.071 5.734 5.734 0 0 0-.759.261 2.376 2.376 0 0 0-.249.119 6.849 6.849 0 0 0-.831.427.062.062 0 0 1-.047.024 7.861 7.861 0 0 0-3.322 3.939 7.753 7.753 0 0 0 .19 6 7.842 7.842 0 0 0 4.414 4.141 7.918 7.918 0 0 0 10.192-4.58 7.593 7.593 0 0 0-.168-5.976zm-7.2-4.307a7.6 7.6 0 0 1 2.67.486l-.2.036-3.69-.261-.237-.119a7.605 7.605 0 0 1 1.454-.142zm-.985.759l3.334.237 1.246 2.159-1.637 1.97-2.954-.142-1.5-2.148zm-6.573 6.419a7.4 7.4 0 0 1 1.768-4.5l.024.807-1.258 3.109zm2.278-3.643l2.361-.463 1.436 2.1-1.1 2.9-2.444.653-1.531-1.993zm2.6 11.047a7.479 7.479 0 0 1-3.583-2.824l.546.142 2.9 2.207.332.534c-.069-.023-.14-.035-.199-.059zm2.515-1.732l-2.468.807-2.515-1.91.237-2.539 2.527-.653 2.421 1.922zm.676-2.444l2.563-1.661 2.231.854-.154 2.4-2.693 1.8-2.159-.866zm1.91 4.248l.332-.475 2.824-1.9.368-.107a7.586 7.586 0 0 1-3.527 2.481zm3.058-5.51l-2.326-.89-.795-2.859 1.637-1.958 2.1 1.009.878 2.8zm1.02-5l.036-.392a7.544 7.544 0 0 1 .356.688 7.443 7.443 0 0 1 .664 2.966l-.071-.119z" fill="#1d1d1b"/><path d="M40.591 13.787l-4.829 2.539.925-5.363-3.9-3.809 5.387-.783 2.421-4.877 2.409 4.877 5.387.783-3.907 3.809.925 5.363z" fill="#e9bd03"/><path d="M34.884 17.537l1.088-6.348-4.6-4.5 6.372-.925L40.591 0l2.848 5.766 6.372.925-4.6 4.5 1.092 6.348-5.7-2.99zm5.707-4.485l3.939 2.076-.747-4.39 3.189-3.109-4.414-.641-1.97-4-1.97 4-4.414.641 3.192 3.109-.747 4.39z" fill="#211917"/></svg>