<svg xmlns="http://www.w3.org/2000/svg" width="103.315" height="94.656" viewBox="0 0 103.315 94.656"><defs><linearGradient id="a" x1=".5" x2=".5" y2="1" gradientUnits="objectBoundingBox"><stop offset="0" stop-color="#deac00"/><stop offset="1" stop-color="#ffe792"/></linearGradient></defs><path data-name="Trazado 130" d="M94.719 265.543a8.57 8.57 0 0 0-7.154 13.309l-12.154 12.154a8.526 8.526 0 0 0-12.875 4.57L46.561 293.9a8.559 8.559 0 1 0-15.778 5.322l-16.971 15.962a8.73 8.73 0 1 0 2.345 2.508l16.971-15.965a8.513 8.513 0 0 0 13.072-4.419l15.975 1.679a8.561 8.561 0 1 0 15.653-5.555l12.154-12.154a8.583 8.583 0 1 0 4.733-15.735zm-85.833 61.8a5.15 5.15 0 1 1 5.15-5.15 5.15 5.15 0 0 1-5.151 5.15zm29.183-27.466a5.15 5.15 0 1 1 5.15-5.15 5.15 5.15 0 0 1-5.15 5.149zm32.616 3.433a5.15 5.15 0 1 1 5.15-5.15 5.15 5.15 0 0 1-5.15 5.149zm24.034-24.034a5.15 5.15 0 1 1 5.15-5.149 5.15 5.15 0 0 1-5.15 5.149zm0 0" transform="translate(-.001 -236.36)" fill="url(#a)"/><path data-name="Trazado 131" d="M20.058 45.008a1.716 1.716 0 0 0 1.214-.5l14.236-14.239 8.228 8.231a1.718 1.718 0 0 0 2.428 0l17.67-17.67 15.094 15.092a1.717 1.717 0 0 0 2.428 0l29.685-29.686v2.723a1.717 1.717 0 1 0 3.433 0V2.092a1.7 1.7 0 0 0-.12-.6 1.863 1.863 0 0 0-.079-.173 1.717 1.717 0 0 0-.24-.356 1.51 1.51 0 0 0-.573-.436c-.016 0-.028-.02-.043-.025a1.72 1.72 0 0 0-.6-.119.577.577 0 0 1-.061-.009h-6.866a1.717 1.717 0 1 0 0 3.433h2.722L80.141 32.281 65.047 17.187a1.719 1.719 0 0 0-2.428 0L44.95 34.856l-8.227-8.228a1.719 1.719 0 0 0-2.428 0l-15.45 15.45a1.717 1.717 0 0 0 1.213 2.931zm0 0" transform="translate(-16.323 -.375)" fill="url(#a)"/></svg>